<?xml version="1.0" encoding="UTF-8"?>
<svg id="_レイヤー_2" data-name="レイヤー 2" xmlns="http://www.w3.org/2000/svg" xmlns:xlink="http://www.w3.org/1999/xlink" viewBox="0 0 147.92 99.91">
  <defs>
    <style>
      .cls-1 {
        stroke: #149243;
      }

      .cls-1, .cls-2, .cls-3, .cls-4, .cls-5, .cls-6, .cls-7 {
        stroke-miterlimit: 10;
      }

      .cls-1, .cls-3, .cls-5 {
        fill: none;
      }

      .cls-2 {
        fill: url(#_名称未設定グラデーション_132);
      }

      .cls-2, .cls-4, .cls-6, .cls-7 {
        stroke: #231815;
      }

      .cls-3 {
        stroke: #e71f19;
      }

      .cls-4 {
        fill: url(#_名称未設定グラデーション_75);
      }

      .cls-5 {
        stroke: #17499d;
      }

      .cls-6 {
        fill: url(#_名称未設定グラデーション_125);
      }

      .cls-7 {
        fill: #fff;
      }
    </style>
    <linearGradient id="_名称未設定グラデーション_132" data-name="名称未設定グラデーション 132" x1="51.88" y1="43.7" x2="90.61" y2="43.7" gradientUnits="userSpaceOnUse">
      <stop offset="0" stop-color="#187fc4"/>
      <stop offset="1" stop-color="#187fc4" stop-opacity=".5"/>
    </linearGradient>
    <linearGradient id="_名称未設定グラデーション_75" data-name="名称未設定グラデーション 75" x1="51.88" y1="32.48" x2="90.61" y2="32.48" gradientUnits="userSpaceOnUse">
      <stop offset="0" stop-color="#187fc4"/>
      <stop offset=".55" stop-color="#187fc4" stop-opacity=".17"/>
      <stop offset="1" stop-color="#187fc4" stop-opacity="0"/>
    </linearGradient>
    <linearGradient id="_名称未設定グラデーション_125" data-name="名称未設定グラデーション 125" x1="90.62" y1="50.52" x2="129.35" y2="50.52" gradientUnits="userSpaceOnUse">
      <stop offset="0" stop-color="#187fc4" stop-opacity=".5"/>
      <stop offset="1" stop-color="#187fc4" stop-opacity="0"/>
    </linearGradient>
  </defs>
  <g id="_レイヤー_1-2" data-name="レイヤー 1">
    <g>
      <polyline class="cls-2" points="90.61 85.84 51.88 79.01 51.88 1.55 90.61 8.38"/>
      <path class="cls-7" d="M75.44,5.45v77.47"/>
      <line class="cls-4" x1="51.88" y1="28.98" x2="90.61" y2="35.98"/>
      <line class="cls-7" x1="51.88" y1="54.16" x2="90.61" y2="61.16"/>
    </g>
    <path class="cls-5" d="M.13,38.91c8.95-2.33,24.19,62.77,33.13,60.44,8.95-2.33,7.14-70.92,16.08-73.25s24.19,62.77,33.14,60.44c8.95-2.33,7.14-70.92,16.09-73.25s24.19,62.77,33.14,60.44S138.84,2.81,147.79.48"/>
    <path class="cls-1" d="M27.35,35.43c6.33-1.65,17.1,44.38,23.43,42.73s5.04-50.14,11.37-51.79c6.33-1.65,17.1,44.38,23.43,42.73,6.33-1.65,5.05-50.14,11.37-51.79s17.1,44.38,23.43,42.73,5.05-50.14,11.37-51.79"/>
    <path class="cls-3" d="M46.28,36.75c4.47-1.16,12.09,31.39,16.57,30.22s3.57-35.46,8.04-36.63,12.09,31.39,16.57,30.22c4.47-1.16,3.57-35.46,8.04-36.63s12.09,31.39,16.57,30.22c4.48-1.16,3.57-35.46,8.04-36.63"/>
    <g>
      <polyline class="cls-6" points="90.62 8.38 129.35 15.21 129.35 92.67 90.62 85.84"/>
      <path class="cls-7" d="M101.63,10.41v77.47"/>
      <line class="cls-7" x1="90.62" y1="35.98" x2="129.35" y2="42.99"/>
      <line class="cls-7" x1="90.62" y1="61.16" x2="129.35" y2="68.16"/>
    </g>
  </g>
</svg>